<?xml version="1.0" encoding="UTF-8"?>
<svg version="1.1" xmlns="http://www.w3.org/2000/svg" width="174" height="100">
<path d="M0 0 C2.97 0 5.94 0 9 0 C9 4.62 9 9.24 9 14 C9.66 13.67 10.32 13.34 11 13 C18.26739927 12.41391941 18.26739927 12.41391941 21.5 15 C21.995 15.66 22.49 16.32 23 17 C23.804375 16.34 24.60875 15.68 25.4375 15 C29.43924713 12.30998946 33.33221995 12.48230076 38 13 C38.8976709 13.25185059 38.8976709 13.25185059 39.81347656 13.50878906 C42.31674437 14.07115785 44.56766328 14.1127837 47.1328125 14.09765625 C48.10347656 14.09443359 49.07414062 14.09121094 50.07421875 14.08789062 C51.58435547 14.07532227 51.58435547 14.07532227 53.125 14.0625 C54.13949219 14.05798828 55.15398437 14.05347656 56.19921875 14.04882812 C58.79952794 14.03670951 61.39973406 14.01890151 64 14 C64.66 14 65.32 14 66 14 C68.00995638 13.71286337 70.01985914 13.42503067 72.02734375 13.12109375 C74 13 74 13 77 14 C79.97 14 82.94 14 86 14 C86 21.26 86 28.52 86 36 C82.7 36 79.4 36 76 36 C74.741875 36.20625 73.48375 36.4125 72.1875 36.625 C68.74070387 37.03050543 67.04725085 36.56979589 64 35 C63.67 35.33 63.34 35.66 63 36 C60.07749913 36.26621971 57.17868292 36.46989841 54.25 36.625 C53.43789062 36.6765625 52.62578125 36.728125 51.7890625 36.78125 C47.62461839 37.0118544 44.09151845 36.90115149 40 36 C37.75473792 36.19651308 37.75473792 36.19651308 35.5625 36.625 C31.22256811 37.21285031 28.7449322 36.40059756 25 34 C24.505 34.99 24.505 34.99 24 36 C21.03 36 18.06 36 15 36 C14.93941406 35.08476563 14.87882812 34.16953125 14.81640625 33.2265625 C14.73261719 32.03804687 14.64882812 30.84953125 14.5625 29.625 C14.48128906 28.44164063 14.40007812 27.25828125 14.31640625 26.0390625 C14.18915064 23.08481099 14.18915064 23.08481099 13 21 C12.01 21 11.02 21 10 21 C9.67 25.95 9.34 30.9 9 36 C6.03 36 3.06 36 0 36 C-0.33 35.01 -0.66 34.02 -1 33 C-2.010625 33.66 -3.02125 34.32 -4.0625 35 C-7.8560096 37.14914556 -10.60497605 37.55936669 -15 37 C-18.64969348 35.52608532 -21.4277887 34.00091319 -24 31 C-25.0828125 31.928125 -25.0828125 31.928125 -26.1875 32.875 C-31.30869148 36.74434467 -35.09848144 37.52328257 -41.42578125 36.73828125 C-45.92443172 35.44807649 -49.10262088 32.60752106 -52 29 C-54.61791618 23.77269505 -54.53140788 18.72739599 -54 13 C-52.23692004 7.71076013 -49.38844888 5.19991064 -45 2 C-39.49615634 0.16538545 -33.94565321 0.30512385 -28.5 2.25 C-25.96094156 4.02734091 -24.99852802 5.10426876 -24 8 C-25.32 9.65 -26.64 11.3 -28 13 C-30.96175123 12.38722388 -32.38058783 11.74627478 -35 10 C-38.05890142 9.75949193 -38.05890142 9.75949193 -41 11 C-43.70490208 15.22640951 -44.20953154 16.83805236 -43.3125 21.8125 C-42.22676282 25.02964744 -42.22676282 25.02964744 -40 27 C-35.73527274 27.49329585 -35.73527274 27.49329585 -32.125 25.5 C-31.75375 25.005 -31.3825 24.51 -31 24 C-33.31 24 -35.62 24 -38 24 C-38 21.36 -38 18.72 -38 16 C-36.74703125 15.95101562 -35.4940625 15.90203125 -34.203125 15.8515625 C-32.55206179 15.77651417 -30.90102119 15.70096723 -29.25 15.625 C-28.425 15.5940625 -27.6 15.563125 -26.75 15.53125 C-25.95078125 15.49257813 -25.1515625 15.45390625 -24.328125 15.4140625 C-23.22839355 15.36693115 -23.22839355 15.36693115 -22.10644531 15.31884766 C-19.74368695 14.9612025 -18.09637273 14.11931035 -16 13 C-13.8515625 12.6640625 -13.8515625 12.6640625 -11.625 12.625 C-10.89539062 12.59664062 -10.16578125 12.56828125 -9.4140625 12.5390625 C-7 13 -7 13 -1 17 C-0.67 11.39 -0.34 5.78 0 0 Z M33 19 C32.34 19.66 31.68 20.32 31 21 C32.65 21 34.3 21 36 21 C35.01 20.34 34.02 19.68 33 19 Z M-15 22 C-15.2500773 24.45809998 -15.2500773 24.45809998 -15 27 C-14.34 27.66 -13.68 28.32 -13 29 C-10.21762345 28.59471099 -10.21762345 28.59471099 -8 27 C-7.83333333 24.5 -7.83333333 24.5 -8 22 C-9.0595877 20.71677453 -9.0595877 20.71677453 -11.5 20.875 C-13.9404123 20.71677453 -13.9404123 20.71677453 -15 22 Z M45 21 C45 22.98 45 24.96 45 27 C43.35 27 41.7 27 40 27 C41.74995075 29.20538884 41.74995075 29.20538884 43.875 29.0625 C47.31737224 27.34131388 48.28033024 24.37792273 50 21 C48.35 21 46.7 21 45 21 Z M71 21 C70.34 22.65 69.68 24.3 69 26 C70.22809091 27.64555699 70.22809091 27.64555699 72 29 C74.16299211 28.77242269 74.16299211 28.77242269 76 28 C76.67958603 25.60280568 76.67958603 25.60280568 77 23 C76.34 22.34 75.68 21.68 75 21 C73.68 21 72.36 21 71 21 Z M59 22 C57.68 24.31 56.36 26.62 55 29 C56.98 29 58.96 29 61 29 C60.67 26.69 60.34 24.38 60 22 C59.67 22 59.34 22 59 22 Z M31 27 C31 27.66 31 28.32 31 29 C32.98 29 34.96 29 37 29 C37.33 28.34 37.66 27.68 38 27 C35.69 27 33.38 27 31 27 Z " fill="#000000" transform="translate(62,32)"/>
<path d="M0 0 C1.48831242 0.00667405 2.97660807 0.01863442 4.46484375 0.03515625 C5.22345703 0.03966797 5.98207031 0.04417969 6.76367188 0.04882812 C8.64326246 0.06064945 10.52281274 0.07858547 12.40234375 0.09765625 C12.45669175 2.15986105 12.49529336 4.22248441 12.52734375 6.28515625 C12.55054688 7.43371094 12.57375 8.58226562 12.59765625 9.765625 C12.40718527 13.01505997 11.79594502 15.18426146 10.40234375 18.09765625 C8.75234375 17.76765625 7.10234375 17.43765625 5.40234375 17.09765625 C4.41234375 19.73765625 3.42234375 22.37765625 2.40234375 25.09765625 C0.75234375 24.76765625 -0.89765625 24.43765625 -2.59765625 24.09765625 C-2.59765625 20.79765625 -2.59765625 17.49765625 -2.59765625 14.09765625 C-5.56765625 14.09765625 -8.53765625 14.09765625 -11.59765625 14.09765625 C-12.25765625 12.77765625 -12.91765625 11.45765625 -13.59765625 10.09765625 C-12.93765625 9.10765625 -12.27765625 8.11765625 -11.59765625 7.09765625 C-7.97265625 6.41015625 -7.97265625 6.41015625 -4.59765625 6.09765625 C-4.61828125 5.29328125 -4.63890625 4.48890625 -4.66015625 3.66015625 C-4.56232234 -0.35103407 -4.15791881 0.11286425 0 0 Z " fill="#E55E64" transform="translate(153.59765625,30.90234375)"/>
</svg>
